<?xml version="1.0" encoding="UTF-8"?>
<svg version="1.1" xmlns="http://www.w3.org/2000/svg" width="1500" height="512">
<path d="M0 0 C4.03168793 3.40453648 5.82824167 7.26285926 6.8125 12.375 C6.95306876 14.99637634 7.04574496 17.5961591 7.09375 20.21923828 C7.11179687 21.00711227 7.12984375 21.79498627 7.1484375 22.60673523 C7.20730038 25.21952062 7.2598211 27.83239574 7.3125 30.4453125 C7.35305975 32.28304031 7.39408336 34.12075794 7.43554688 35.95846558 C7.54421839 40.81787441 7.64782184 45.67737704 7.75 50.53692627 C8.0793299 66.15018675 8.42465588 81.76307606 8.8125 97.375 C8.83990265 98.49327431 8.83990265 98.49327431 8.86785889 99.63414001 C8.97833389 104.08743532 9.10764599 108.53977198 9.25 112.9921875 C9.27707031 114.04705353 9.30414062 115.10191956 9.33203125 116.18875122 C9.36554688 117.12790375 9.3990625 118.06705627 9.43359375 119.03466797 C9.4586499 119.83419891 9.48370605 120.63372986 9.50952148 121.45748901 C9.65728772 123.61184357 9.65728772 123.61184357 11.8125 125.375 C15.39593976 125.54177282 15.39593976 125.54177282 18.8125 125.375 C18.84120178 124.80838654 18.86990356 124.24177307 18.8994751 123.6579895 C19.20375124 117.71865892 19.53231388 111.78101374 19.87451172 105.84375 C19.99881177 103.63282341 20.1170788 101.42154853 20.22900391 99.20996094 C20.39170292 96.01645288 20.57663186 92.82485976 20.765625 89.6328125 C20.8106012 88.65635773 20.85557739 87.67990295 20.9019165 86.67385864 C21.39717311 78.88187142 22.73024473 71.18923307 28.6875 65.75 C32.18784065 64.20985011 34.04157441 63.7465124 37.8125 64.375 C42.99896937 66.76077591 44.81717269 69.62393159 46.94726562 74.65258789 C48.57817287 79.78414733 48.72901297 85.02714621 49 90.375 C49.11214844 92.1549939 49.11214844 92.1549939 49.2265625 93.97094727 C49.55271882 99.23772806 49.82157954 104.50696771 50.08203125 109.77734375 C50.12239502 110.55658203 50.16275879 111.33582031 50.2043457 112.13867188 C50.30508556 114.16347468 50.38764152 116.18915959 50.46875 118.21484375 C50.78751097 121.14527134 51.27348745 122.8989274 52.8125 125.375 C54.4625 125.375 56.1125 125.375 57.8125 125.375 C60.20066511 121.61509242 60.29112391 117.71393322 60.55859375 113.390625 C60.67497472 111.79946779 60.7915163 110.20832231 60.90820312 108.6171875 C61.08080152 106.12491569 61.2495076 103.63244812 61.41430664 101.13964844 C61.5771954 98.72246565 61.75477709 96.3066743 61.93359375 93.890625 C61.97745712 93.15700745 62.0213205 92.42338989 62.06651306 91.6675415 C62.55482489 85.19792801 64.03578408 79.63190941 68.125 74.4375 C71.26764185 72.02570509 72.85686594 71.375 76.8125 71.375 C81.22697996 72.6688993 83.31676211 73.74880477 86.1875 77.375 C88.82762995 82.24908606 89.14091381 86.66515085 89.49609375 92.09375 C89.62016167 93.84767615 89.7445195 95.60158182 89.86914062 97.35546875 C90.06129207 100.12038295 90.2506936 102.88541778 90.43481445 105.65087891 C90.61412957 108.31994281 90.80436468 110.98805316 90.99609375 113.65625 C91.04825546 114.48443237 91.10041718 115.31261475 91.15415955 116.16589355 C91.43470605 119.98134588 91.65123433 122.13310149 93.8125 125.375 C96.89615871 125.6252157 96.89615871 125.6252157 99.8125 125.375 C99.96283691 124.26427124 99.96283691 124.26427124 100.11621094 123.13110352 C100.58443629 119.73116105 101.0733048 116.33448604 101.5625 112.9375 C101.71976563 111.77283203 101.87703125 110.60816406 102.0390625 109.40820312 C103.13941436 101.89618562 104.31385832 94.10688445 109.6875 88.375 C112.50179486 87.05062595 114.69334578 86.50231242 117.8125 86.375 C121.55665519 88.02939415 123.59575671 89.98508927 125.8125 93.375 C128.56267413 101.94286588 128.1229604 111.23733771 128.11328125 120.13671875 C128.11718432 121.65534071 128.12152219 123.17396161 128.12626648 124.69258118 C128.13368978 127.86873919 128.13346969 131.04478604 128.12817383 134.22094727 C128.12357327 137.4255183 128.13034707 140.62970712 128.14868164 143.83422852 C128.40263319 188.60460043 128.40263319 188.60460043 122.8125 205.375 C64.7325 205.375 6.6525 205.375 -53.1875 205.375 C-58.43086823 192.79091624 -58.43086823 192.79091624 -60.81030273 186.58105469 C-67.64114719 168.91553654 -75.78322508 151.50509206 -85.47241211 135.21777344 C-89.2378883 128.8450082 -91.32355875 122.78851159 -90.1875 115.375 C-87.99196257 112.44761676 -86.06848474 112.34675909 -82.5 111.5 C-74.20355221 110.8099073 -68.10388958 114.59003294 -61.9453125 119.79296875 C-52.5661021 128.57435412 -43.73751673 137.52537896 -39.171875 149.7421875 C-38.91118225 150.42177521 -38.6504895 151.10136292 -38.38189697 151.80154419 C-37.56014013 153.94845115 -36.74867781 156.09907667 -35.9375 158.25 C-35.37828325 159.71640498 -34.81839372 161.18255359 -34.2578125 162.6484375 C-32.89324957 166.22104291 -31.53789776 169.79701761 -30.1875 173.375 C-29.62324946 164.91995238 -29.06127912 156.46475619 -28.50156689 148.00940704 C-28.22263822 143.79594769 -27.94322158 139.58252202 -27.66265869 135.36917114 C-26.37904223 116.08149252 -25.13466642 96.79265549 -24.0118084 77.49488258 C-23.84873294 74.6981527 -23.6841688 71.9015146 -23.51905823 69.10490417 C-23.43836232 67.73725151 -23.43836232 67.73725151 -23.35603619 66.34196949 C-23.24849162 64.51935474 -23.14090288 62.69674259 -23.03326893 60.87413311 C-22.71945347 55.54150046 -22.41634776 50.20838529 -22.12067699 44.87471771 C-21.93307059 41.53367022 -21.73581801 38.19323983 -21.53614616 34.85289383 C-21.44602349 33.31049913 -21.35996152 31.76786047 -21.27844429 30.22498703 C-20.03645177 6.80886378 -20.03645177 6.80886378 -13.1875 0.375 C-8.78897542 -2.70396721 -4.6698835 -2.38072492 0 0 Z " fill="#009B6A" transform="translate(829.1875,173.625)"/>
<path d="M0 0 C10.21562929 -0.07013345 20.43119942 -0.12312783 30.64702225 -0.15543652 C35.39286169 -0.17095877 40.13853403 -0.19194462 44.88427734 -0.22631836 C49.48143863 -0.25939984 54.07844127 -0.27695341 58.67571259 -0.28463173 C60.4120101 -0.29008923 62.14830095 -0.30073975 63.88452911 -0.31719017 C91.50159279 -0.56796513 121.29725533 4.06586707 141.99438477 23.93457031 C143.34456502 25.27479382 144.67297863 26.63684189 146 28 C146.67675781 28.67933594 147.35351562 29.35867187 148.05078125 30.05859375 C164.74416863 47.86240601 167.67283361 72.00605996 167.3125 95.36328125 C166.48813452 119.25957554 157.95036434 141.79991882 140.58154297 158.59521484 C118.94926515 177.80980678 90.72940434 180.36330489 63.18359375 180.1953125 C61.34701188 180.19157013 59.51042798 180.18872897 57.67384338 180.18673706 C52.9015221 180.1791968 48.12932771 180.15963413 43.35705566 180.1373291 C38.46266393 180.11666039 33.56825117 180.10769096 28.67382812 180.09765625 C19.11583047 180.0763765 9.55792589 180.04236077 0 180 C0 175.71 0 171.42 0 167 C4.83398438 166.70703125 4.83398438 166.70703125 9.66796875 166.4140625 C12.84383756 166.01940588 15.18664702 165.51211293 18 164 C19.05526667 160.83419998 19.12835069 158.60032677 19.13371277 155.27528381 C19.13797775 154.08213058 19.14224274 152.88897736 19.14663696 151.65966797 C19.14595718 149.69356567 19.14595718 149.69356567 19.14526367 147.68774414 C19.1482555 146.2947938 19.15165809 144.90184429 19.15544128 143.50889587 C19.16428255 139.72379727 19.16661944 135.93872126 19.16725707 132.15361333 C19.16820618 128.99498519 19.17188447 125.83636233 19.17542917 122.67773622 C19.18357403 115.2266424 19.18601335 107.77556066 19.18530273 100.32446289 C19.18470176 92.63493059 19.19525743 84.9454684 19.2110464 77.25595385 C19.22411528 70.65630674 19.22948691 64.05668256 19.22884732 57.45702261 C19.22859217 53.51433851 19.23145321 49.57171671 19.24202538 45.62904549 C19.25169554 41.92150959 19.25179303 38.21409572 19.24450874 34.50655556 C19.24296199 32.49631791 19.251317 30.48608031 19.25994873 28.4758606 C19.25575424 27.27988754 19.25155975 26.08391449 19.24723816 24.85169983 C19.24778293 23.81212663 19.24832769 22.77255342 19.24888897 21.701478 C18.99446498 18.93992205 18.50995428 17.30908815 17 15 C14.19533866 13.59766933 11.62203894 13.69340064 8.5 13.5 C2.22222222 13.11111111 2.22222222 13.11111111 0 12 C0 8.04 0 4.08 0 0 Z M47 14 C47 64.16 47 114.32 47 166 C85.07819429 166.8964801 85.07819429 166.8964801 117.04052734 149.32568359 C133.88461351 132.02492773 136.49367971 108.91850428 136.35351562 85.91088867 C135.9316886 64.57397408 131.1975287 43.43053194 115.3125 28.125 C95.1764332 11.96791646 72.03002973 14 47 14 Z " fill="#009B6A" transform="translate(1033,102)"/>
<path d="M0 0 C0 14.52 0 29.04 0 44 C-5.61 44 -11.22 44 -17 44 C-17.30292969 42.25332031 -17.60585937 40.50664062 -17.91796875 38.70703125 C-18.34011764 36.40866508 -18.76335161 34.11049802 -19.1875 31.8125 C-19.38408203 30.66201172 -19.58066406 29.51152344 -19.78320312 28.32617188 C-21.02756645 21.70198496 -21.02756645 21.70198496 -24.23828125 15.87109375 C-27.41213112 13.7207768 -30.36164937 12.45755603 -34 11.25 C-35.19625 10.84265625 -36.3925 10.4353125 -37.625 10.015625 C-53.90199151 5.11745626 -71.33869373 7.76143146 -86.25 15.5 C-90.09642208 17.64774837 -92.91388388 19.88657312 -96 23 C-96.66 23 -97.32 23 -98 23 C-98.26296875 23.57878906 -98.5259375 24.15757812 -98.796875 24.75390625 C-100.06060061 27.11313426 -101.51616016 28.90297172 -103.25 30.9375 C-113.31485862 43.80629012 -117.43671201 60.86057458 -118 77 C-118.03996094 77.88042969 -118.07992187 78.76085937 -118.12109375 79.66796875 C-118.60774794 100.42233873 -115.42241963 124.54040292 -101.125 140.625 C-100.23167969 141.54152344 -100.23167969 141.54152344 -99.3203125 142.4765625 C-98 144 -98 144 -98 146 C-97.41476563 146.27199219 -96.82953125 146.54398438 -96.2265625 146.82421875 C-94.03850838 147.97966487 -92.29721302 149.26246014 -90.375 150.8125 C-77.3641338 160.65466816 -61.33781534 164.14799713 -45.1796875 162.64453125 C-41.77065391 162.16321334 -38.38973523 161.60060843 -35 161 C-32.69 160.67 -30.38 160.34 -28 160 C-28.33 141.52 -28.66 123.04 -29 104 C-33.41765525 102.2329379 -35.95804046 101.68826431 -40.5625 101.4375 C-44.26969771 101.22749689 -47.37857451 100.90535637 -51 100 C-51 96.04 -51 92.08 -51 88 C-27.9 88 -4.8 88 19 88 C19 91.96 19 95.92 19 100 C15.46142951 101.76928524 11.23419766 101.74671493 7.32226562 102.16210938 C5.53897249 102.37485919 3.76733643 102.68075269 2 103 C0.62203431 105.75593138 0.83701061 108.01779814 0.79467773 111.10205078 C0.77473251 112.38322784 0.75478729 113.66440491 0.73423767 114.98440552 C0.71725331 116.38803994 0.70037451 117.79167563 0.68359375 119.1953125 C0.6630246 120.62735597 0.64202814 122.05939337 0.62062073 123.49142456 C0.56539597 127.26266563 0.51598853 131.03396152 0.46777344 134.80529785 C0.41756133 138.65280036 0.36187376 142.50022313 0.30664062 146.34765625 C0.19905413 153.89837 0.09761029 161.44915 0 169 C-18.8237189 175.07663273 -35.94872456 179.34690966 -55.875 179.4375 C-57.14569336 179.44765137 -58.41638672 179.45780273 -59.72558594 179.46826172 C-84.58361435 179.23946732 -106.58141001 170.17717619 -124.3203125 152.80078125 C-143.07184114 133.20188033 -150.71478956 106.23759898 -150.18359375 79.640625 C-149.4946241 58.67198347 -142.7529994 38.04516596 -129 22 C-128.33097656 21.11634766 -128.33097656 21.11634766 -127.6484375 20.21484375 C-114.17912537 2.92528812 -90.14620539 -5.64003406 -69.1953125 -8.4609375 C-45.0621892 -11.24446866 -23.1577917 -6.31576137 0 0 Z " fill="#009B6A" transform="translate(151,111)"/>
<path d="M0 0 C8.84795875 7.46004365 13.18681198 17.78251762 14.19166565 29.17252922 C14.26796601 31.38119419 14.28996719 33.5827542 14.28710938 35.79272461 C14.29394241 36.61987976 14.30077545 37.44703491 14.30781555 38.29925537 C14.32130157 40.0768409 14.33041986 41.85446408 14.33552551 43.63209343 C14.34387282 46.44371189 14.36442536 49.25501457 14.38806152 52.06654358 C14.44422311 59.03912658 14.4797903 66.01178549 14.51568604 72.98449707 C14.54688053 78.89816732 14.585994 84.8116791 14.63594055 90.72522163 C14.65604015 93.49838978 14.66433033 96.27143662 14.67224121 99.04466248 C14.68520511 100.73412528 14.69872416 102.42358396 14.71289062 104.11303711 C14.71190872 104.88651993 14.71092682 105.66000275 14.70991516 106.45692444 C14.61382496 110.68824 14.61382496 110.68824 17 114 C19.36030696 114.45847689 21.7398174 114.82143131 24.125 115.125 C25.40632812 115.29257812 26.68765625 115.46015625 28.0078125 115.6328125 C29.48894531 115.81457031 29.48894531 115.81457031 31 116 C31 119.63 31 123.26 31 127 C11.53 127 -7.94 127 -28 127 C-28 123.37 -28 119.74 -28 116 C-27.08476562 115.86722656 -26.16953125 115.73445313 -25.2265625 115.59765625 C-23.44378906 115.33275391 -23.44378906 115.33275391 -21.625 115.0625 C-19.84996094 114.80146484 -19.84996094 114.80146484 -18.0390625 114.53515625 C-15.09297619 114.16537214 -15.09297619 114.16537214 -13 113 C-12.88380302 102.48135432 -12.7951314 91.96286303 -12.74093914 81.44370461 C-12.71492051 76.5584294 -12.67966487 71.6735955 -12.62280273 66.78857422 C-12.56820563 62.06823811 -12.53852138 57.34832465 -12.52561378 52.62769699 C-12.51642337 50.83285246 -12.49847703 49.03802929 -12.47134972 47.24336624 C-12.05060979 33.29998068 -12.05060979 33.29998068 -18 21 C-24.90123668 15.27093488 -33.3781509 15.4086472 -41.91259766 15.80322266 C-47.7818222 16.35650862 -53.39682623 18.25537544 -59 20 C-61.3324172 20.66986482 -63.66563513 21.33695433 -66 22 C-65.9157088 33.55245997 -65.82086939 45.10478017 -65.71247292 56.6570406 C-65.66247623 62.02092707 -65.61614649 67.38479351 -65.578125 72.7487793 C-65.54131482 77.92301203 -65.49496652 83.09707862 -65.44193649 88.27116966 C-65.42336983 90.2475411 -65.40827032 92.22394818 -65.39665604 94.2003727 C-65.37983245 96.96358975 -65.35080695 99.72642439 -65.31884766 102.48950195 C-65.31668747 103.31093185 -65.31452728 104.13236176 -65.31230164 104.97868347 C-65.25515575 108.8332086 -65.18766454 110.71850318 -63 114 C-59.66149945 114.8071582 -59.66149945 114.8071582 -55.875 115.1875 C-53.95300781 115.42533203 -53.95300781 115.42533203 -51.9921875 115.66796875 C-51.00476563 115.77753906 -50.01734375 115.88710938 -49 116 C-49 119.63 -49 123.26 -49 127 C-69.13 127 -89.26 127 -110 127 C-110 123.37 -110 119.74 -110 116 C-108.30230469 115.83564453 -108.30230469 115.83564453 -106.5703125 115.66796875 C-105.08846436 115.50852939 -103.60669744 115.34833382 -102.125 115.1875 C-101.37863281 115.11724609 -100.63226563 115.04699219 -99.86328125 114.97460938 C-97.89448223 114.75289777 -95.94363342 114.38420661 -94 114 C-91.37806348 110.06709522 -91.69263834 106.68884322 -91.68115234 102.12231445 C-91.67110672 101.21479431 -91.6610611 100.30727417 -91.65071106 99.37225342 C-91.61979298 96.36926921 -91.60281994 93.36637449 -91.5859375 90.36328125 C-91.56723279 88.28247808 -91.54765991 86.20168255 -91.5272522 84.12089539 C-91.47585135 78.64155576 -91.43626818 73.16219151 -91.39910889 67.68273926 C-91.35911907 62.09246696 -91.30800385 56.50229775 -91.2578125 50.91210938 C-91.16095905 39.94147858 -91.07658442 28.97078969 -91 18 C-92.28777344 18.01160156 -93.57554687 18.02320313 -94.90234375 18.03515625 C-96.58072772 18.0445327 -98.25911326 18.05363305 -99.9375 18.0625 C-101.21270508 18.07506836 -101.21270508 18.07506836 -102.51367188 18.08789062 C-103.32255859 18.09111328 -104.13144531 18.09433594 -104.96484375 18.09765625 C-105.7137085 18.10289307 -106.46257324 18.10812988 -107.23413086 18.11352539 C-109 18 -109 18 -110 17 C-110.07179964 15.48071962 -110.08392007 13.95832518 -110.0625 12.4375 C-110.05347656 11.61121094 -110.04445313 10.78492188 -110.03515625 9.93359375 C-110.02355469 9.29550781 -110.01195312 8.65742188 -110 8 C-105.99347891 6.54729804 -101.97768159 5.12500105 -97.95166016 3.72753906 C-96.58952256 3.2503265 -95.23000861 2.76554351 -93.87353516 2.27246094 C-84.13851048 -1.25837703 -76.47365152 -2.54479332 -66 -2 C-65.505 3.94 -65.505 3.94 -65 10 C-63.45505859 9.12988281 -63.45505859 9.12988281 -61.87890625 8.2421875 C-54.39414517 4.10703876 -46.95411377 0.33916711 -38.875 -2.5 C-37.84741577 -2.86375732 -37.84741577 -2.86375732 -36.79907227 -3.23486328 C-24.26119879 -7.45559435 -11.4967634 -6.82011388 0 0 Z " fill="#009B6A" transform="translate(422,159)"/>
<path d="M0 0 C7.69293034 6.70950419 11.26110365 14.56503594 12.89453125 24.65234375 C12.99538168 27.4346161 13.04849021 30.19286073 13.05224609 32.97509766 C13.05732681 33.80006241 13.06240753 34.62502716 13.06764221 35.47499084 C13.07831493 37.26030045 13.08694717 39.04562318 13.09376144 40.83095169 C13.10557819 43.65506174 13.12503513 46.47902079 13.1468811 49.30307007 C13.20842603 57.33025117 13.26264325 65.35741336 13.29589844 73.38476562 C13.31680294 78.29896897 13.35206299 83.21289106 13.39665604 88.12693405 C13.41084015 90.00003128 13.41954389 91.87317819 13.42271042 93.74632645 C13.4276006 96.36064544 13.4507058 98.97421198 13.47802734 101.58837891 C13.47502121 102.36455063 13.47201508 103.14072235 13.46891785 103.94041443 C13.52059389 108.01313228 13.52059389 108.01313228 15.21304321 111.6265564 C18.00148263 113.32763652 20.80393495 113.15188927 24.01953125 113.27734375 C30.81119792 113.56901042 30.81119792 113.56901042 31.89453125 114.65234375 C31.99277062 116.31663426 32.02426756 117.98516306 32.01953125 119.65234375 C32.02339844 121.01359375 32.02339844 121.01359375 32.02734375 122.40234375 C31.89453125 124.65234375 31.89453125 124.65234375 30.89453125 125.65234375 C27.93747804 125.74102674 25.00388069 125.76754671 22.046875 125.75 C20.71723473 125.74787758 20.71723473 125.74787758 19.36073303 125.74571228 C16.51779871 125.7400959 13.67494194 125.72754066 10.83203125 125.71484375 C8.90950634 125.70983086 6.98698021 125.70526759 5.06445312 125.70117188 C0.34111576 125.69012116 -4.38216333 125.67284558 -9.10546875 125.65234375 C-10.59046875 118.22734375 -10.59046875 118.22734375 -12.10546875 110.65234375 C-13.13285156 111.31621094 -14.16023438 111.98007812 -15.21875 112.6640625 C-30.07287321 122.17062943 -44.82294699 130.63424928 -63.10546875 128.65234375 C-73.08878677 126.34247801 -81.04364122 121.21658824 -86.8515625 112.75 C-92.51423828 103.27692557 -92.67432614 91.16044698 -90.44921875 80.51171875 C-86.42253248 69.19534182 -76.4686186 63.57928976 -66.10546875 58.65234375 C-55.58547777 53.98310903 -44.56294985 50.80602349 -33.48046875 47.77734375 C-31.84513184 47.32959595 -31.84513184 47.32959595 -30.17675781 46.87280273 C-24.13598583 45.2780129 -18.33395813 44.16159131 -12.10546875 43.65234375 C-12.356679 40.29640934 -12.63499138 36.94323698 -12.91796875 33.58984375 C-12.98822266 32.64689453 -13.05847656 31.70394531 -13.13085938 30.73242188 C-13.73988636 23.74079214 -14.80785173 18.46054232 -19.35546875 12.90234375 C-25.1367246 8.17222533 -30.30445706 7.17696095 -37.54296875 7.33984375 C-38.25517578 7.33662109 -38.96738281 7.33339844 -39.70117188 7.33007812 C-45.01339748 7.38315213 -48.61572447 8.27990768 -54.10546875 9.65234375 C-54.43546875 17.24234375 -54.76546875 24.83234375 -55.10546875 32.65234375 C-59.18897794 32.7062317 -63.27177774 32.74596522 -67.35546875 32.77734375 C-68.51433594 32.79410156 -69.67320313 32.81085938 -70.8671875 32.828125 C-71.98222656 32.83457031 -73.09726563 32.84101563 -74.24609375 32.84765625 C-75.27250977 32.85812988 -76.29892578 32.86860352 -77.35644531 32.87939453 C-80.15733965 32.64805956 -81.76953845 32.18475168 -84.10546875 30.65234375 C-86.33299505 26.19729115 -85.78471954 20.05427275 -84.45703125 15.359375 C-80.21224193 5.98093021 -71.29883196 1.34007702 -62.10546875 -2.34765625 C-43.69015749 -8.24982485 -16.53601771 -12.54773886 0 0 Z M-57.10546875 72.65234375 C-62.27840498 77.87847213 -64.39230198 82.6029188 -64.48046875 89.96484375 C-64.34876308 96.82903352 -63.21477315 101.49456467 -58.3515625 106.43359375 C-52.56211692 111.55828044 -48.74674276 112.06369101 -40.96875 111.9921875 C-34.78762367 111.44844838 -29.61282455 109.43044451 -24.10546875 106.65234375 C-23.10128906 106.34240479 -22.09710937 106.03246582 -21.0625 105.71313477 C-17.09985611 104.14322368 -14.91037629 102.89680183 -12.10546875 99.65234375 C-10.02836777 92.30553815 -10.9881831 84.24477709 -11.35546875 76.71484375 C-11.41569476 74.57892502 -11.47044193 72.44284432 -11.51953125 70.30664062 C-11.65145299 65.0849969 -11.85188191 59.86941863 -12.10546875 54.65234375 C-26.1944584 54.65234375 -46.94184585 63.17778003 -57.10546875 72.65234375 Z " fill="#009B6A" transform="translate(1391.10546875,156.34765625)"/>
<path d="M0 0 C10.61078357 9.82914205 16.29222318 22.85245269 17.13183594 37.26269531 C17.29607306 42.18372602 17.30033126 47.08496336 17 52 C15.21142938 53.78857062 12.79876866 53.11990579 10.41790771 53.12442017 C9.21705536 53.11902725 9.21705536 53.11902725 7.99194336 53.11352539 C7.15299026 53.11367142 6.31403717 53.11381744 5.44966125 53.1139679 C2.66302956 53.1132685 -0.12353616 53.10547485 -2.91015625 53.09765625 C-4.83686791 53.09579217 -6.76358005 53.09436822 -8.69029236 53.09336853 C-13.77187397 53.08954259 -18.8534272 53.07971166 -23.93499756 53.06866455 C-29.11616634 53.05845206 -34.29733969 53.05387126 -39.47851562 53.04882812 C-49.65235625 53.03808946 -59.82617577 53.02101213 -70 53 C-69.505 53.99 -69.505 53.99 -69 55 C-68.78885479 56.86894868 -68.58218888 58.73858502 -68.40527344 60.61108398 C-66.91269225 76.12756981 -62.71628875 89.98944184 -50.375 100.30859375 C-40.30414173 107.48076749 -28.9700192 108.07000172 -17 107 C-6.29419489 104.91002211 2.47741537 99.71153365 11.61328125 94.01171875 C15 92 15 92 17 92 C18.38702688 103.41728604 18.38702688 103.41728604 17 109 C14.19960951 112.35295796 11.04875829 113.75959628 6.98632812 115.26416016 C4.80774367 116.0712218 2.68279795 116.97295737 0.546875 117.88671875 C-17.15615148 125.25528495 -38.51403592 129.27528838 -57 122 C-73.35775858 115.21796302 -84.99991325 104.43254965 -91.93359375 87.93359375 C-99.30072349 67.6672405 -98.14814838 43.4626846 -89.453125 23.8203125 C-87.07864521 19.21177914 -84.19408257 15.0738087 -81 11 C-80.2265625 10.00871094 -79.453125 9.01742187 -78.65625 7.99609375 C-68.8341559 -3.66301343 -53.4820762 -9.20665028 -38.765625 -10.78125 C-24.63558438 -11.60208223 -11.09872475 -9.27314012 0 0 Z M-59.46875 13.984375 C-65.41806791 21.81562 -68 30.24461799 -68 40 C-48.86 40 -29.72 40 -10 40 C-10.72857109 22.02742042 -10.72857109 22.02742042 -20 8 C-25.82430669 3.25756198 -32.88353492 3.22572396 -40.08203125 3.5546875 C-48.05913473 4.46135729 -54.06807486 8.12515197 -59.46875 13.984375 Z " fill="#009B6A" transform="translate(644,164)"/>
<path d="M0 0 C9.36551956 8.46745604 13.78265819 20.49071186 16.4375 32.4375 C16.4375 39.3675 16.4375 46.2975 16.4375 53.4375 C-11.9425 53.4375 -40.3225 53.4375 -69.5625 53.4375 C-66.47865704 80.0469842 -66.47865704 80.0469842 -50.93359375 100.78125 C-40.13423487 108.32478899 -26.77556321 109.06272576 -14.0859375 106.82421875 C-6.53011008 104.69621277 0.2168225 101.16251142 7.02734375 97.33984375 C10.12509475 95.61177418 13.25288199 93.99820593 16.4375 92.4375 C17.94494937 107.47849485 17.94494937 107.47849485 14.703125 111.69140625 C12.01590272 113.30286144 9.3840055 114.37111024 6.4375 115.4375 C5.36371094 115.94152344 4.28992188 116.44554687 3.18359375 116.96484375 C-15.30378264 125.56704733 -36.64938383 129.61961006 -56.4375 122.74609375 C-71.01578664 116.64143622 -84.01755931 107.37972309 -90.5625 92.4375 C-98.38346362 71.80876194 -99.41888772 48.91266751 -91.3125 28.125 C-83.99157312 12.04510704 -72.9007534 -0.18063068 -56.3125 -6.875 C-37.86055086 -12.96440569 -15.82283698 -12.23632726 0 0 Z M-59.5625 14.4375 C-65.3372095 21.92424102 -68.5625 30.92757899 -68.5625 40.4375 C-49.4225 40.4375 -30.2825 40.4375 -10.5625 40.4375 C-10.5625 29.23998427 -10.6138617 19.74173763 -17.875 10.8125 C-23.57565629 5.14769689 -28.05322429 4.25966177 -35.9375 4 C-45.6621799 4.22057952 -53.00010778 7.15119881 -59.5625 14.4375 Z " fill="#009B6A" transform="translate(281.5625,163.5625)"/>
<path d="M0 0 C0.33 60.72 0.66 121.44 1 184 C5.17213619 185.39071206 9.3678057 185.38672073 13.7265625 185.60546875 C18.89840515 185.89840515 18.89840515 185.89840515 20 187 C20 190.63 20 194.26 20 198 C-1.78 198 -23.56 198 -46 198 C-46 187 -46 187 -45 186 C-41.84841549 185.76306704 -38.70455088 185.60409924 -35.546875 185.48242188 C-31.88056774 185.2934002 -30.12534063 185.08356042 -27 183 C-26.53428401 180.07747853 -26.53428401 180.07747853 -26.60127258 176.57138062 C-26.59462576 175.90405273 -26.58797893 175.23672485 -26.58113068 174.5491749 C-26.56240885 172.30264982 -26.56511199 170.05665303 -26.56762695 167.81005859 C-26.55861535 166.20386497 -26.54828962 164.59767826 -26.53674316 162.99150085 C-26.50907615 158.62190597 -26.49987556 154.25244122 -26.49388909 149.88277006 C-26.48453055 145.31963118 -26.45832933 140.75659047 -26.43388367 136.19351196 C-26.39014537 127.54856034 -26.36164351 118.90362768 -26.33856028 110.25859892 C-26.3115478 100.41829658 -26.26763395 90.57809264 -26.22227156 80.73786044 C-26.12932035 60.49195814 -26.05828722 40.2460292 -26 20 C-32.6 20 -39.2 20 -46 20 C-46 17.03 -46 14.06 -46 11 C-39.16007149 8.35578373 -32.23664496 6.03808448 -25.25 3.8125 C-24.1465625 3.44447266 -23.043125 3.07644531 -21.90625 2.69726562 C-20.80796875 2.34986328 -19.7096875 2.00246094 -18.578125 1.64453125 C-17.60262695 1.32846924 -16.62712891 1.01240723 -15.62207031 0.68676758 C-10.50092534 -0.28423409 -5.21238622 0 0 0 Z " fill="#009B6A" transform="translate(1479,84)"/>
<path d="M0 0 C1.07495098 0.00828323 2.14990196 0.01656647 3.25742722 0.02510071 C4.07379276 0.03575058 4.89015831 0.04640045 5.73126221 0.05737305 C5.73365056 0.66366987 5.73603891 1.2699667 5.73849964 1.89463615 C5.7975823 16.63307337 5.87308886 31.37136273 5.96697712 46.10961723 C6.01198255 53.2368815 6.05138607 60.36409527 6.07769775 67.49145508 C6.10308612 74.36447478 6.14395845 81.23726121 6.19444847 88.11014175 C6.21118638 90.73766426 6.22265731 93.36522557 6.22887611 95.99279404 C6.23844201 99.66153427 6.26641119 103.32969239 6.29888916 106.99829102 C6.29745407 108.09448761 6.29601898 109.1906842 6.29454041 110.32009888 C6.30707855 111.31571838 6.3196167 112.31133789 6.33253479 113.33712769 C6.33714375 114.20545668 6.34175272 115.07378567 6.34650135 115.96842766 C6.53695797 117.00245563 6.53695797 117.00245563 6.73126221 118.05737305 C10.33304809 120.45856364 13.23992589 120.49508627 17.41876221 120.68237305 C18.12065674 120.72104492 18.82255127 120.7597168 19.54571533 120.79956055 C21.27380876 120.89360645 23.00249896 120.97656984 24.73126221 121.05737305 C24.73126221 125.01737305 24.73126221 128.97737305 24.73126221 133.05737305 C3.94126221 133.05737305 -16.84873779 133.05737305 -38.26873779 133.05737305 C-38.26873779 129.09737305 -38.26873779 125.13737305 -38.26873779 121.05737305 C-29.85373779 120.56237305 -29.85373779 120.56237305 -21.26873779 120.05737305 C-20.93873779 87.38737305 -20.60873779 54.71737305 -20.26873779 21.05737305 C-26.20873779 21.05737305 -32.14873779 21.05737305 -38.26873779 21.05737305 C-38.26873779 17.42737305 -38.26873779 13.79737305 -38.26873779 10.05737305 C-33.9383787 8.61032806 -29.60102377 7.1874423 -25.25604248 5.78491211 C-23.78392223 5.30619994 -22.31378672 4.82133325 -20.84588623 4.32983398 C-18.7159316 3.61791191 -16.57943626 2.92962464 -14.44061279 2.24487305 C-13.80258728 2.02613525 -13.16456177 1.80739746 -12.50720215 1.58203125 C-8.26358347 0.25402163 -4.4533127 -0.04458008 0 0 Z " fill="#009B6A" transform="translate(1257.2687377929688,148.942626953125)"/>
<path d="M0 0 C1.48370275 0.00929551 1.48370275 0.00929551 2.9973793 0.0187788 C3.75055309 0.02674638 4.50372688 0.03471395 5.27972412 0.04292297 C5.28303427 0.6492198 5.28634441 1.25551662 5.28975487 1.88018608 C5.37090181 16.61859405 5.46296676 31.35690567 5.56725121 46.09516716 C5.61741745 53.22242451 5.66385978 60.34967013 5.70159912 67.477005 C5.73800201 74.34998097 5.78469811 81.22282461 5.83778763 88.09569168 C5.85637913 90.72322002 5.87146931 93.35077545 5.88306808 95.97834396 C5.8998493 99.64697558 5.92886448 103.31531518 5.96087646 106.98384094 C5.96303665 108.08003754 5.96519684 109.17623413 5.96742249 110.3056488 C5.97858597 111.30126831 5.98974945 112.29688782 6.00125122 113.32267761 C6.00678198 114.1910066 6.01231274 115.05933559 6.01801109 115.95397758 C6.09021666 118.2625617 6.09021666 118.2625617 8.27972412 120.04292297 C11.00442198 120.50952028 13.66152214 120.87891551 16.40472412 121.16792297 C17.15882568 121.25429016 17.91292725 121.34065735 18.68988037 121.42964172 C20.55229539 121.64181559 22.41591343 121.8433806 24.27972412 122.04292297 C24.27972412 125.67292297 24.27972412 129.30292297 24.27972412 133.04292297 C3.48972412 133.04292297 -17.30027588 133.04292297 -38.72027588 133.04292297 C-38.72027588 129.41292297 -38.72027588 125.78292297 -38.72027588 122.04292297 C-37.588479 121.94495422 -36.45668213 121.84698547 -35.29058838 121.74604797 C-33.80871809 121.59598516 -32.32695212 121.44488977 -30.84527588 121.29292297 C-30.09890869 121.23104797 -29.3525415 121.16917297 -28.58355713 121.10542297 C-26.14272072 120.88268435 -26.14272072 120.88268435 -22.72027588 120.04292297 C-20.90752157 117.35970892 -20.46717696 115.15245877 -20.44180298 111.95533752 C-20.4306395 111.15049423 -20.41947601 110.34565094 -20.40797424 109.51641846 C-20.40581406 108.6424794 -20.40365387 107.76854034 -20.40142822 106.86811829 C-20.3913826 105.94094498 -20.38133698 105.01377167 -20.37098694 104.0585022 C-20.34011355 100.99602372 -20.32310815 97.93363284 -20.30621338 94.87104797 C-20.28750509 92.74683374 -20.26793193 90.62262697 -20.24752808 88.49842834 C-20.19616516 82.9089548 -20.15656161 77.31945716 -20.11938477 71.72987366 C-20.07937126 66.02556881 -20.0282668 60.3213646 -19.97808838 54.61714172 C-19.88127973 43.42579908 -19.79791567 32.23441504 -19.72027588 21.04292297 C-25.99027588 21.04292297 -32.26027588 21.04292297 -38.72027588 21.04292297 C-38.72027588 17.74292297 -38.72027588 14.44292297 -38.72027588 11.04292297 C-32.30834616 8.10566615 -25.69166393 5.97212434 -18.97027588 3.85542297 C-17.85394775 3.48739563 -16.73761963 3.11936829 -15.58746338 2.7401886 C-13.92843994 2.21908508 -13.92843994 2.21908508 -12.23590088 1.68745422 C-11.24880127 1.37139221 -10.26170166 1.0553302 -9.24468994 0.72969055 C-6.01071514 0.09951799 -3.27782654 -0.026648 0 0 Z " fill="#009B6A" transform="translate(505.72027587890625,152.9570770263672)"/>
<path d="M0 0 C0 2.31 0 4.62 0 7 C-0.969375 7.2475 -1.93875 7.495 -2.9375 7.75 C-6.02980259 8.65770282 -6.02980259 8.65770282 -7.0625 10.75 C-7.15942691 13.18451251 -7.15942691 13.18451251 -5.5625 15.75 C-3.65610206 19.71530772 -3.2305971 22.67751181 -4 27 C-6.66580446 32.33160893 -10.35690623 35.58977015 -15.9375 37.75 C-20.1690722 38.26291784 -23.9428144 38.3523952 -28 37 C-28.495 39.475 -28.495 39.475 -29 42 C-28.39003174 42.07516846 -27.78006348 42.15033691 -27.15161133 42.2277832 C-24.37025437 42.57740175 -21.59151788 42.94476952 -18.8125 43.3125 C-17.85279297 43.43044922 -16.89308594 43.54839844 -15.90429688 43.66992188 C-6.65249662 44.91843471 -6.65249662 44.91843471 -3 48 C-0.25729417 52.06019896 -0.49793949 56.27569291 -1 61 C-2.62338814 66.27601144 -5.40917737 68.30719809 -9.96484375 71.01953125 C-16.65800557 74.24406794 -25.52923796 74.1317197 -32.5 71.8125 C-36.20155741 69.89562206 -37.974319 68.62934512 -40 65 C-40.67594811 61.02880483 -40.15015005 59.29473898 -38.3125 55.6875 C-35.71298442 52.66644136 -34.7813586 52.53302733 -31 52 C-31.10699219 52.75925781 -31.21398437 53.51851563 -31.32421875 54.30078125 C-31.44410156 55.29464844 -31.56398438 56.28851563 -31.6875 57.3125 C-31.81511719 58.29863281 -31.94273437 59.28476562 -32.07421875 60.30078125 C-32.25310617 63.00325824 -32.25310617 63.00325824 -30.70703125 64.79296875 C-26.14265902 68.02040815 -20.3371006 67.46036394 -15 67 C-12.45121078 65.82755696 -10.93702622 64.93702622 -9 63 C-8.55309206 58.92270461 -8.55309206 58.92270461 -10.21679688 55.35522461 C-12.46114357 53.64953341 -13.98742385 53.47084214 -16.78125 53.19140625 C-17.70550781 53.08376953 -18.62976563 52.97613281 -19.58203125 52.86523438 C-21.52694664 52.66345266 -23.47226666 52.46553365 -25.41796875 52.27148438 C-26.80435547 52.1080957 -26.80435547 52.1080957 -28.21875 51.94140625 C-29.06373047 51.85576416 -29.90871094 51.77012207 -30.77929688 51.68188477 C-33.68187881 50.79062362 -34.52965787 49.61310599 -36 47 C-35.80061318 42.41410306 -34.18444471 38.988986 -32 35 C-32.804375 34.236875 -33.60875 33.47375 -34.4375 32.6875 C-38.18223715 28.76009275 -38.35317569 25.47152494 -38.27734375 20.28125 C-37.68899868 15.44190466 -34.89123312 12.78513394 -31.375 9.6875 C-25.76430591 6.88215296 -19.95118558 6.22433611 -13.875 7.9375 C-12.451875 8.4634375 -12.451875 8.4634375 -11 9 C-10.76216797 8.16855469 -10.76216797 8.16855469 -10.51953125 7.3203125 C-8.60595934 1.37872459 -8.60595934 1.37872459 -5.5 -0.5625 C-3 -1 -3 -1 0 0 Z M-29 16 C-30.75014069 19.50028139 -30.55017114 23.18078874 -30 27 C-28.70220635 29.98977697 -27.66276883 30.83650032 -25 33 C-21.93218201 33.78366044 -20.26332665 33.51798836 -17 33 C-14.03141843 30.79259319 -13.17134209 29.51402627 -12 26 C-11.63054941 21.01241703 -11.81772807 17.95040654 -15 14 C-21.19177652 9.51096202 -23.58873988 11.05928424 -29 16 Z " fill="#009B6A" transform="translate(656,438)"/>
<path d="M0 0 C7.26 0 14.52 0 22 0 C22 1.32 22 2.64 22 4 C20.02 4 18.04 4 16 4 C16.06704134 10.60233437 16.15686432 17.20407852 16.26245117 23.8059082 C16.29568351 26.0512795 16.32372069 28.296734 16.34643555 30.54223633 C16.38001202 33.77200743 16.43233073 37.00101727 16.48828125 40.23046875 C16.49467117 41.23272995 16.5010611 42.23499115 16.50764465 43.2676239 C16.62809115 50.13114101 16.62809115 50.13114101 20 56 C25.21626946 59.01453047 31.11682149 59.56933986 37 59 C40.67430109 57.85554556 43.14117649 56.99942458 45.66723633 54.05981445 C47.65413518 49.49820916 47.48030905 45.15708815 47.51171875 40.23046875 C47.52966995 39.19432938 47.54762115 38.15819 47.56611633 37.09065247 C47.62018686 33.78964271 47.65410523 30.48877731 47.6875 27.1875 C47.72067588 24.94594347 47.75516578 22.70440598 47.79101562 20.46289062 C47.87591141 14.97538986 47.94427514 9.48787034 48 4 C46.02 4 44.04 4 42 4 C42 2.68 42 1.36 42 0 C47.61 0 53.22 0 59 0 C59 1.32 59 2.64 59 4 C57.35 4 55.7 4 54 4 C54.01571045 5.73117065 54.01571045 5.73117065 54.03173828 7.49731445 C54.06825595 11.82670931 54.09101476 16.15609088 54.10986328 20.4855957 C54.1198491 22.35052794 54.13344246 24.21544481 54.15087891 26.08032227 C54.39919915 53.34442406 54.39919915 53.34442406 48.48828125 60.6328125 C43.03781395 65.63980346 35.44762395 66.25784711 28.40234375 66.15234375 C21.76545243 65.73146771 16.14375736 64.42602378 11 60 C5.81260843 53.01697288 5.85648266 46.20932038 5.90234375 37.88671875 C5.9037587 36.91716751 5.90517365 35.94761627 5.90663147 34.94868469 C5.91221487 31.86159133 5.92476436 28.77457133 5.9375 25.6875 C5.94251714 23.59049584 5.94707968 21.49349054 5.95117188 19.39648438 C5.96217888 14.26429479 5.97943212 9.13215982 6 4 C4.02 4 2.04 4 0 4 C0 2.68 0 1.36 0 0 Z " fill="#009B6A" transform="translate(503,426)"/>
<path d="M0 0 C0 1.65 0 3.3 0 5 C0.70125 4.38125 1.4025 3.7625 2.125 3.125 C7.19025181 -0.61888177 11.59723898 -1.55693499 17.75390625 -0.6640625 C21.69533985 0.50123091 24.51305935 2.76568859 27 6 C31.18408904 14.10298934 31.52247938 23.25576619 29.19140625 32.05078125 C26.43188298 38.34325819 22.26472492 42.22474727 16 45 C9.31827878 46.96652665 6.7572083 45.89594642 0 43 C-0.33 48.94 -0.66 54.88 -1 61 C1.31 61 3.62 61 6 61 C6.66 61.99 7.32 62.98 8 64 C7.67 64.66 7.34 65.32 7 66 C-0.59 66 -8.18 66 -16 66 C-16 64.68 -16 63.36 -16 62 C-12.535 61.505 -12.535 61.505 -9 61 C-9.33 42.85 -9.66 24.7 -10 6 C-12.97 5.505 -12.97 5.505 -16 5 C-16 3.68 -16 2.36 -16 1 C-13.8973294 0.63705686 -11.79278943 0.28493028 -9.6875 -0.0625 C-8.51574219 -0.25972656 -7.34398437 -0.45695312 -6.13671875 -0.66015625 C-3 -1 -3 -1 0 0 Z M-1 11 C-1.53788619 15.10341965 -1.46316611 19.24039609 -1.5 23.375 C-1.54125 24.52484375 -1.5825 25.6746875 -1.625 26.859375 C-1.65444104 30.01692654 -1.59864644 32.89891389 -1 36 C1.81379226 38.82179736 3.56945132 39.65939317 7.37890625 40.56640625 C11.50309518 40.55902845 13.47144141 40.37111561 16.9375 37.9375 C21.84130157 30.95329776 21.6795522 23.30099143 21 15 C20.15804199 11.39863216 18.75228599 8.83288806 16.25 6.0625 C9.24239805 2.75335463 4.03216156 5.96783844 -1 11 Z " fill="#009B6A" transform="translate(581,446)"/>
<path d="M0 0 C6.6 0 13.2 0 20 0 C20 1.32 20 2.64 20 4 C18.02 4 16.04 4 14 4 C16.97 12.58 19.94 21.16 23 30 C28.65745256 17.40251469 28.65745256 17.40251469 28 4 C26.35 4 24.7 4 23 4 C23 2.68 23 1.36 23 0 C29.6 0 36.2 0 43 0 C43 1.32 43 2.64 43 4 C41.02 4 39.04 4 37 4 C39.97 12.58 42.94 21.16 46 30 C49.3 21.42 52.6 12.84 56 4 C54.02 4 52.04 4 50 4 C50 2.68 50 1.36 50 0 C55.94 0 61.88 0 68 0 C67.67 1.32 67.34 2.64 67 4 C65.88262451 3.9680957 65.88262451 3.9680957 64.74267578 3.93554688 C61.95325114 4.70340653 61.95325114 4.70340653 60.95257568 6.67407227 C59.90915654 9.09850127 58.99857014 11.54324399 58.1171875 14.03125 C57.77624054 14.93750122 57.43529358 15.84375244 57.08401489 16.77746582 C55.9951434 19.67825118 54.93335769 22.58795642 53.875 25.5 C52.80655711 28.41075123 51.73241117 31.31897771 50.64456177 34.22253418 C49.96801393 36.03097579 49.30319213 37.8438545 48.65109253 39.66125488 C48.34712555 40.47880249 48.04315857 41.2963501 47.72998047 42.13867188 C47.46748505 42.86179565 47.20498962 43.58491943 46.93453979 44.32995605 C46 46 46 46 43 47 C41.49198432 43.06552291 39.99497086 39.12695023 38.5 35.1875 C38.07074219 34.06794922 37.64148437 32.94839844 37.19921875 31.79492188 C36.79316406 30.72177734 36.38710937 29.64863281 35.96875 28.54296875 C35.40317383 27.0583313 35.40317383 27.0583313 34.82617188 25.54370117 C34 23 34 23 34 20 C33.34 20 32.68 20 32 20 C31.77957031 20.804375 31.77957031 20.804375 31.5546875 21.625 C29.91703287 27.34737939 28.02169122 32.96627865 26 38.5625 C25.7510498 39.27728516 25.50209961 39.99207031 25.24560547 40.72851562 C24.58578499 42.52087669 23.80117528 44.26620663 23 46 C21.515 46.495 21.515 46.495 20 47 C19.03319167 44.44283394 18.06798259 41.88507866 17.10449219 39.32666016 C16.2816062 37.14199263 15.45672025 34.95807742 14.62988281 32.77490234 C12.7454427 27.77309362 10.89290919 22.77574653 9.2421875 17.69140625 C8.85764404 16.52242798 8.85764404 16.52242798 8.46533203 15.32983398 C7.99923487 13.89320483 7.54884471 12.45135465 7.11669922 11.00415039 C6.02937769 7.67879369 5.47075087 6.25464594 2.328125 4.5546875 C1.55984375 4.37164062 0.7915625 4.18859375 0 4 C0 2.68 0 1.36 0 0 Z " fill="#009B6A" transform="translate(1225,447)"/>
<path d="M0 0 C0.33 8.58 0.66 17.16 1 26 C2.65 24.68 4.3 23.36 6 22 C10.98766098 20.33744634 15.98368448 20.16717403 20.875 22.1875 C24.37716756 25.17464292 25.85052083 27.81995019 26.43237305 32.41333008 C26.45855713 33.68587646 26.48474121 34.95842285 26.51171875 36.26953125 C26.52966995 36.95053391 26.54762115 37.63153656 26.56611633 38.33317566 C26.61998631 40.4928888 26.65403782 42.65238399 26.6875 44.8125 C26.72069391 46.28323331 26.75518549 47.75393793 26.79101562 49.22460938 C26.87569716 52.81619687 26.94261961 56.40786076 27 60 C28.65 60.33 30.3 60.66 32 61 C32 62.32 32 63.64 32 65 C25.07 65 18.14 65 11 65 C11 63.68 11 62.36 11 61 C12.98 61 14.96 61 17 61 C16.90655552 56.47895877 16.8004837 51.95845887 16.68261719 47.43798828 C16.64429699 45.89965979 16.60944944 44.36124075 16.578125 42.82275391 C16.53253941 40.61327724 16.4745366 38.40442552 16.4140625 36.1953125 C16.40251129 35.50567413 16.39096008 34.81603577 16.37905884 34.10549927 C16.35048978 30.1079846 16.35048978 30.1079846 14 27 C9.39214568 27.08861258 5.76612548 27.97188589 2.23046875 31.05395508 C-0.63465749 35.58528867 0.41709567 41.66020433 0.625 46.8125 C0.65207031 48.07771484 0.67914062 49.34292969 0.70703125 50.64648438 C0.77766303 53.7660547 0.87626354 56.88215841 1 60 C2.65 60.33 4.3 60.66 6 61 C6 62.32 6 63.64 6 65 C-0.93 65 -7.86 65 -15 65 C-15 63.68 -15 62.36 -15 61 C-13.02 61 -11.04 61 -9 61 C-9 42.85 -9 24.7 -9 6 C-11.97 5.505 -11.97 5.505 -15 5 C-15 3.68 -15 2.36 -15 1 C-14.01 0.835 -13.02 0.67 -12 0.5 C-11.1646875 0.36078125 -11.1646875 0.36078125 -10.3125 0.21875 C-6.88950733 -0.1050466 -3.43827327 0 0 0 Z " fill="#009B6A" transform="translate(1361,425)"/>
<path d="M0 0 C0.33 19.8 0.66 39.6 1 60 C2.98 60.66 4.96 61.32 7 62 C7 62.99 7 63.98 7 65 C2.38 65.33 -2.24 65.66 -7 66 C-7 64.35 -7 62.7 -7 61 C-8.299375 61.928125 -8.299375 61.928125 -9.625 62.875 C-15.06467731 66.29998201 -19.5569344 67.57527371 -26 67 C-31.14292664 65.14854641 -33.86727911 62.43802125 -37 58 C-40.32567336 49.68002275 -40.22315949 40.1885452 -36.89453125 31.859375 C-33.72235734 25.26568601 -28.68309159 22.4997035 -22 20 C-16.67889302 19.37920419 -14.28906137 20.23697954 -9 22 C-9 16.72 -9 11.44 -9 6 C-11.97 5.505 -11.97 5.505 -15 5 C-15 3.68 -15 2.36 -15 1 C-14.01 0.835 -13.02 0.67 -12 0.5 C-11.443125 0.4071875 -10.88625 0.314375 -10.3125 0.21875 C-6.88950733 -0.1050466 -3.43827327 0 0 0 Z M-26 28 C-30.65876405 35.15401538 -31.08913479 43.71865078 -30 52 C-27.67330621 57.57750508 -27.67330621 57.57750508 -23 61 C-18.20909561 61.30171726 -14.98138918 60.53734305 -10.75390625 58.22265625 C-7.72609162 55.53737642 -7.49643986 53.14058477 -7.23828125 49.18359375 C-7.23165537 46.93476951 -7.25747956 44.68566083 -7.3125 42.4375 C-7.29026367 40.73303711 -7.29026367 40.73303711 -7.26757812 38.99414062 C-7.1979667 32.59128693 -7.1979667 32.59128693 -10.328125 27.28125 C-16.09186657 24.51735053 -20.80674211 23.96079942 -26 28 Z " fill="#009B6A" transform="translate(775,425)"/>
<path d="M0 0 C1.32 0 2.64 0 4 0 C5.10159921 2.89645752 6.20240381 5.79321167 7.30200195 8.69042969 C8.27576892 11.25510058 9.25405658 13.81799004 10.23510742 16.37988281 C12.69385944 22.8165175 15.11226171 29.26131818 17.39804077 35.76171875 C18.43695429 38.71321303 19.49343301 41.65829543 20.55065918 44.60327148 C21.05789925 46.03258151 21.55623258 47.46508418 22.04553223 48.90063477 C22.73348095 50.91635379 23.45109569 52.91912507 24.17578125 54.921875 C24.57708252 56.07268555 24.97838379 57.22349609 25.3918457 58.40917969 C26.79993477 61.33108067 26.79993477 61.33108067 30.17651367 61.87988281 C31.10826416 61.91952148 32.04001465 61.95916016 33 62 C33 63.32 33 64.64 33 66 C25.41 66 17.82 66 10 66 C10 64.68 10 63.36 10 62 C11.98 62 13.96 62 16 62 C15.566875 60.79601562 15.13375 59.59203125 14.6875 58.3515625 C14.12483503 56.77610058 13.56234403 55.20057651 13 53.625 C12.57074219 52.43390625 12.57074219 52.43390625 12.1328125 51.21875 C11.86210938 50.45820313 11.59140625 49.69765625 11.3125 48.9140625 C11.06113281 48.2123291 10.80976562 47.5105957 10.55078125 46.78759766 C10 45 10 45 10 43 C3.07 43 -3.86 43 -11 43 C-11.66 45.97 -12.32 48.94 -13 52 C-13.65410414 53.8739845 -14.35245923 55.73415351 -15.125 57.5625 C-15.47820312 58.40941406 -15.83140625 59.25632812 -16.1953125 60.12890625 C-16.59363281 61.05509766 -16.59363281 61.05509766 -17 62 C-15.02 62 -13.04 62 -11 62 C-11 63.32 -11 64.64 -11 66 C-16.94 66 -22.88 66 -29 66 C-28.67 64.68 -28.34 63.36 -28 62 C-26.35 62 -24.7 62 -23 62 C-22.59080322 60.75130127 -22.18160645 59.50260254 -21.76000977 58.21606445 C-19.89328951 52.61876937 -17.87385735 47.08126473 -15.83984375 41.54296875 C-15.25403282 39.94489128 -15.25403282 39.94489128 -14.65638733 38.31452942 C-13.83599139 36.07800227 -13.01488969 33.84173389 -12.19311523 31.60571289 C-10.93529023 28.18148425 -9.68141538 24.7558258 -8.42773438 21.33007812 C-7.6278439 19.15095365 -6.8277218 16.97191418 -6.02734375 14.79296875 C-5.65334946 13.7700322 -5.27935516 12.74709564 -4.89402771 11.69316101 C-4.54348831 10.74149551 -4.19294891 9.78983002 -3.83178711 8.80932617 C-3.52550888 7.97487473 -3.21923065 7.14042328 -2.90367126 6.28068542 C-2.04568895 4.11530977 -1.07575966 2.06452502 0 0 Z M-1 15 C-2.17430074 18.2681432 -3.33811256 21.53992515 -4.5 24.8125 C-5.00080078 26.2056543 -5.00080078 26.2056543 -5.51171875 27.62695312 C-5.82753906 28.51962891 -6.14335938 29.41230469 -6.46875 30.33203125 C-6.76201172 31.15421143 -7.05527344 31.9763916 -7.35742188 32.82348633 C-8.14157525 35.10130654 -8.14157525 35.10130654 -8 38 C-2.72 38 2.56 38 8 38 C6.88415544 34.35112861 5.75786081 30.70608605 4.625 27.0625 C4.30789063 26.02158203 3.99078125 24.98066406 3.6640625 23.90820312 C3.3546875 22.91884766 3.0453125 21.92949219 2.7265625 20.91015625 C2.44377441 19.99371338 2.16098633 19.07727051 1.86962891 18.13305664 C1.20269356 15.82659394 1.20269356 15.82659394 -1 15 Z " fill="#009B6A" transform="translate(1441,424)"/>
<path d="M0 0 C0.33 12.87 0.66 25.74 1 39 C9.12697581 39.16837102 9.12697581 39.16837102 15 35 C16.38308781 32.23382437 16.11210196 29.98982 16.09765625 26.8984375 C16.09282227 25.08085937 16.09282227 25.08085937 16.08789062 23.2265625 C16.07951172 21.95554687 16.07113281 20.68453125 16.0625 19.375 C16.05798828 18.09625 16.05347656 16.8175 16.04882812 15.5 C16.03701203 12.33328708 16.02053815 9.16666644 16 6 C13.525 5.505 13.525 5.505 11 5 C11 3.68 11 2.36 11 1 C17.93 0.01 17.93 0.01 25 -1 C26.66577625 2.33155251 26.12007856 6.06536059 26.09765625 9.7265625 C26.0962413 10.58937836 26.09482635 11.45219421 26.09336853 12.34115601 C26.08776188 15.1024723 26.07520827 17.86370812 26.0625 20.625 C26.05748586 22.4947905 26.0529228 24.36458226 26.04882812 26.234375 C26.03779029 30.82294777 26.0205212 35.41146023 26 40 C27.98 40 29.96 40 32 40 C32 41.32 32 42.64 32 44 C25.565 44.495 25.565 44.495 19 45 C18.34 43.02 17.68 41.04 17 39 C16.39865234 39.63228516 16.39865234 39.63228516 15.78515625 40.27734375 C11.81494123 44.10351469 8.77255166 45.90027094 3.21484375 46.17578125 C-0.43591071 45.88603883 -2.81347436 44.82087179 -6 43 C-9.24764156 38.12853766 -9.12216054 33.70772611 -9.09765625 27.94921875 C-9.0962413 27.29041214 -9.09482635 26.63160553 -9.09336853 25.95283508 C-9.087805 23.86434238 -9.07525947 21.77595989 -9.0625 19.6875 C-9.05748028 18.26497551 -9.0529182 16.84244934 -9.04882812 15.41992188 C-9.03784757 11.94657923 -9.02060835 8.47330039 -9 5 C-10.98 5 -12.96 5 -15 5 C-15 3.68 -15 2.36 -15 1 C-13.0641649 0.63684334 -11.12624752 0.28477269 -9.1875 -0.0625 C-8.10855469 -0.25972656 -7.02960937 -0.45695312 -5.91796875 -0.66015625 C-3 -1 -3 -1 0 0 Z " fill="#009B6A" transform="translate(952,446)"/>
<path d="M0 0 C4.00933276 3.00451239 5.87334419 6.23463762 7.19921875 10.9921875 C7.51999923 17.02869285 6.53917525 21.88525126 2.63671875 26.5859375 C-1.10431557 30.24564499 -4.71108326 31.18550409 -9.80078125 31.4296875 C-15.2961635 31.24019156 -18.41412653 29.47612434 -22.23828125 25.49609375 C-25.34321572 21.95893829 -26.68835878 19.45367962 -27.05078125 14.7421875 C-26.66416525 8.94294748 -25.12108939 5.34250264 -21.05078125 1.1796875 C-14.08912358 -3.50604362 -7.37387749 -4.12681213 0 0 Z " fill="#009B6A" transform="translate(509.80078125,99.0078125)"/>
<path d="M0 0 C4.90609677 3.27073118 7.70164224 6.55932013 9.3125 12.1875 C10.20297852 17.26494002 9.30728868 21.38263576 6.8125 25.875 C3.88609254 29.31143847 0.21787803 31.87377772 -4.1875 32.875 C-10.03206331 33.2295229 -14.13941654 32.42749601 -18.6875 28.625 C-22.82287105 24.50630384 -24.21943796 21.3491779 -24.625 15.5625 C-24.4770624 10.34117311 -22.73641066 6.68170078 -19.1875 2.875 C-13.22451744 -1.63855823 -7.07333121 -2.49646984 0 0 Z " fill="#009B6A" transform="translate(1259.1875,93.125)"/>
<path d="M0 0 C7.26 0 14.52 0 22 0 C22.33 0.66 22.66 1.32 23 2 C22.67 2.66 22.34 3.32 22 4 C19.4375 4.625 19.4375 4.625 17 5 C18.99001382 11.28425416 21.34067418 17.2732028 24.01171875 23.30078125 C25 26 25 26 25 30 C25.66 30 26.32 30 27 30 C27.19033813 28.91972534 27.19033813 28.91972534 27.38452148 27.81762695 C27.99035083 25.04417336 28.82514653 22.56350977 29.84765625 19.91796875 C30.20537109 18.98662109 30.56308594 18.05527344 30.93164062 17.09570312 C31.30482422 16.13599609 31.67800781 15.17628906 32.0625 14.1875 C32.43955078 13.20845703 32.81660156 12.22941406 33.20507812 11.22070312 C34.13315595 8.8123999 35.06490116 6.40558386 36 4 C34.02 4 32.04 4 30 4 C30 2.68 30 1.36 30 0 C35.94 0 41.88 0 48 0 C48 1.32 48 2.64 48 4 C47.10869385 3.9477124 46.2173877 3.8954248 45.29907227 3.84155273 C41.95615066 4.6417812 41.95615066 4.6417812 40.72164917 6.93655396 C39.43386096 9.76679998 38.3072704 12.62379665 37.21484375 15.53515625 C36.57948448 17.13598305 36.57948448 17.13598305 35.93128967 18.76914978 C34.5771353 22.19178389 33.25601562 25.62599702 31.9375 29.0625 C30.60997429 32.47155903 29.27559247 35.87771571 27.93299866 39.28086853 C27.0992663 41.39947595 26.27505267 43.5218621 25.4618988 45.64845276 C19.78327099 60.22551792 19.78327099 60.22551792 15.07286072 63.22865295 C11.85830401 64.42484467 9.28500401 63.73000089 6 63 C5.34 62.34 4.68 61.68 4 61 C4.45454545 55.54545455 4.45454545 55.54545455 7 53 C10.17280351 53.43762807 13.05667611 54.77361505 16 56 C16.19335938 55.40832031 16.38671875 54.81664062 16.5859375 54.20703125 C16.84632813 53.41683594 17.10671875 52.62664062 17.375 51.8125 C17.75785156 50.64654297 17.75785156 50.64654297 18.1484375 49.45703125 C19 47 19 47 20.23242188 44.83520508 C21.34341742 40.73151828 19.79354144 37.89660736 18.1328125 34.1796875 C17.66245071 33.06897385 17.66245071 33.06897385 17.18258667 31.93582153 C16.17958924 29.57488828 15.1535348 27.22490629 14.125 24.875 C13.1078508 22.5163862 12.0956611 20.15579443 11.08883667 17.79275513 C10.46144054 16.32401092 9.82731092 14.85812107 9.18582153 13.39547729 C7.90555792 10.42932868 7 8.26711918 7 5 C4.69 4.67 2.38 4.34 0 4 C0 2.68 0 1.36 0 0 Z " fill="#009B6A" transform="translate(843,447)"/>
<path d="M0 0 C2.75983793 1.90788796 3.50913395 4.17375414 4.796875 7.2421875 C5.22924805 10.76904297 5.22924805 10.76904297 5.30859375 14.609375 C5.32654495 15.28896271 5.34449615 15.96855042 5.36299133 16.66873169 C5.41674317 18.81815569 5.45087436 20.96736227 5.484375 23.1171875 C5.51757938 24.58336337 5.5520719 26.04951067 5.58789062 27.515625 C5.67244698 31.09093698 5.73942506 34.66632542 5.796875 38.2421875 C8.766875 38.7371875 8.766875 38.7371875 11.796875 39.2421875 C11.796875 40.5621875 11.796875 41.8821875 11.796875 43.2421875 C7.03380063 44.19480237 2.6302222 44.32552107 -2.203125 44.2421875 C-2.698125 41.7671875 -2.698125 41.7671875 -3.203125 39.2421875 C-4.1725 40.0465625 -5.141875 40.8509375 -6.140625 41.6796875 C-10.30771722 44.64051618 -14.11111752 45.55753951 -19.203125 45.2421875 C-22.78928561 44.04680063 -24.60942927 42.89333765 -27.140625 40.1171875 C-28.68331747 35.94284316 -28.31493428 32.51060216 -27.203125 28.2421875 C-24.79426855 23.72558165 -21.38566068 21.92013558 -16.796875 20.0234375 C-12.34102037 18.68131261 -7.83425737 18.41531394 -3.203125 18.2421875 C-3.458727 16.30261936 -3.73317146 14.36552761 -4.015625 12.4296875 C-4.16644531 11.35074219 -4.31726563 10.27179688 -4.47265625 9.16015625 C-5.22485753 6.15537358 -5.69640199 5.00054418 -8.203125 3.2421875 C-11.23501766 2.75975675 -11.23501766 2.75975675 -14.203125 4.2421875 C-15.95571929 7.09886259 -17.11681275 10.07910182 -18.203125 13.2421875 C-20.53607275 13.28460473 -22.87015067 13.28311687 -25.203125 13.2421875 C-26.203125 12.2421875 -26.203125 12.2421875 -26.578125 9.4921875 C-26.203125 6.2421875 -26.203125 6.2421875 -24.203125 3.5546875 C-16.57848291 -2.32264077 -9.06162721 -2.93596722 0 0 Z M-11.765625 23.5546875 C-12.91224609 23.92013672 -12.91224609 23.92013672 -14.08203125 24.29296875 C-16.42612268 25.34198204 -17.67568091 26.17677568 -19.203125 28.2421875 C-19.63897762 30.45341069 -19.63897762 30.45341069 -19.515625 32.8046875 C-19.51175781 33.58972656 -19.50789062 34.37476563 -19.50390625 35.18359375 C-19.38015523 37.46345584 -19.38015523 37.46345584 -17.203125 39.2421875 C-11.50891604 39.89921161 -8.66830506 38.75054326 -4.203125 35.2421875 C-2.89049929 34.15666384 -2.89049929 34.15666384 -3.10546875 31.51953125 C-3.11707031 30.41738281 -3.12867188 29.31523437 -3.140625 28.1796875 C-3.14964844 27.07496094 -3.15867187 25.97023438 -3.16796875 24.83203125 C-3.17957031 23.97738281 -3.19117188 23.12273437 -3.203125 22.2421875 C-6.65678663 22.2421875 -8.58737374 22.50602592 -11.765625 23.5546875 Z " fill="#009B6A" transform="translate(721.203125,446.7578125)"/>
<path d="M0 0 C3.16910662 4.07774782 3.41042588 7.40337906 3.51171875 12.48828125 C3.52966995 13.19147995 3.54762115 13.89467865 3.56611633 14.6191864 C3.6200048 16.85023117 3.65404412 19.0810647 3.6875 21.3125 C3.72069224 22.83140947 3.75518367 24.35029114 3.79101562 25.86914062 C3.87571695 29.57922416 3.94263074 33.2893817 4 37 C6.97 37.495 6.97 37.495 10 38 C10 39.32 10 40.64 10 42 C3.565 42.495 3.565 42.495 -3 43 C-3.66 41.35 -4.32 39.7 -5 38 C-5.70125 38.61875 -6.4025 39.2375 -7.125 39.875 C-11.31527184 42.97215745 -14.86455525 44.26969948 -20.0625 43.9375 C-24.34000595 43.22458234 -26.4420313 41.56565333 -29 38 C-30.21510974 33.89900461 -30.13329011 31.51538844 -29.0625 27.375 C-25.93305469 22.25408949 -22.13443715 19.90226677 -16.39453125 18.25 C-12.49156013 17.41982594 -9.00544629 17 -5 17 C-5.255602 15.06043186 -5.53004646 13.12334011 -5.8125 11.1875 C-5.96332031 10.10855469 -6.11414062 9.02960938 -6.26953125 7.91796875 C-7.02173253 4.91318608 -7.49327699 3.75835668 -10 2 C-13.03189266 1.51756925 -13.03189266 1.51756925 -16 3 C-17.75259429 5.85667509 -18.91368775 8.83691432 -20 12 C-22.33294775 12.04241723 -24.66702567 12.04092937 -27 12 C-27.33 11.67 -27.66 11.34 -28 11 C-27.79375904 7.35640968 -27.54270131 4.78148989 -25.4375 1.75 C-17.50049777 -3.94836058 -8.67537623 -4.93305707 0 0 Z M-20.0625 25.75 C-21.40177294 28.96425505 -21.31291591 31.55792494 -21 35 C-20.01 36.485 -20.01 36.485 -19 38 C-14.61352838 38.59048656 -12.49113016 38.28194509 -8.625 36.0625 C-6.74985059 34.6018668 -6.74985059 34.6018668 -5 33 C-4.92755947 30.98035801 -4.91622812 28.95832876 -4.9375 26.9375 C-4.94652344 25.83277344 -4.95554687 24.72804688 -4.96484375 23.58984375 C-4.97644531 22.73519531 -4.98804688 21.88054687 -5 21 C-10.48882106 21 -15.79352128 22.12783623 -20.0625 25.75 Z " fill="#009B6A" transform="translate(1112,448)"/>
<path d="M0 0 C5.85602766 5.03890752 9.24370989 9.66711261 9.98828125 17.4609375 C10.03957219 31.5830422 10.03957219 31.5830422 4.91796875 37.28125 C0.35982269 41.5343576 -3.50299312 44.27823157 -9.91796875 44.3359375 C-17.15702644 43.96470377 -21.24965348 42.28783662 -26.5 37.1875 C-30.75823687 30.43305531 -32.42885624 22.72120273 -30.80859375 14.87109375 C-28.98071384 7.86247991 -26.66560052 3.29698806 -20.25 -0.5 C-13.33906279 -3.29378313 -6.75577769 -3.4416226 0 0 Z M-19.3125 7.3125 C-23.09284494 13.52695194 -22.9498289 22.33663103 -21.625 29.3125 C-20.62243575 33.02266973 -19.05874059 35.56625941 -16.3125 38.3125 C-13.07185691 39.93282155 -9.80327634 40.02271553 -6.3125 39.3125 C-1.78733571 35.08245512 0.43257939 30.95952446 1.0234375 24.82421875 C1.10867933 16.47904338 0.87782741 10.33619785 -4.70703125 3.640625 C-7.04770086 1.70430464 -9.36455999 1.78224485 -12.3125 1.890625 C-15.72183377 2.60978134 -17.24675728 4.63918589 -19.3125 7.3125 Z " fill="#009B6A" transform="translate(923.3125,447.6875)"/>
<path d="M0 0 C7.1237515 4.00358593 11.55050085 9.53850858 14.08984375 17.30859375 C15.87190692 25.57088664 14.79572766 33.18238522 10.5625 40.5 C5.78269289 46.81660585 -0.66937593 50.91038388 -8.4375 52.5 C-16.13703896 53.26553733 -22.69486965 52.11652918 -29.0859375 47.6484375 C-35.90989638 41.98515198 -39.61503561 36.60723555 -40.8046875 27.7734375 C-41.19934777 19.53200255 -38.70292231 13.18131125 -34.4375 6.25 C-25.28065578 -3.5210228 -11.84185441 -5.3281026 0 0 Z M-30.28515625 9.73046875 C-35.03401974 16.61239149 -36.2255596 22.17397906 -35.4375 30.5 C-33.6318554 37.13603143 -28.99303406 41.67216461 -23.4375 45.5 C-17.65926203 48.2959216 -11.3818422 48.58383664 -5.19140625 46.8828125 C0.97984499 44.16409363 5.82003568 39.124792 8.73046875 33.0703125 C10.80437774 26.66358894 10.30597685 20.30258981 7.5625 14.1875 C4.357489 8.43679455 -0.19157834 4.58197389 -6.4375 2.5 C-15.91869716 1.58077036 -23.90725334 2.03113987 -30.28515625 9.73046875 Z " fill="#009B6A" transform="translate(777.4375,10.5)"/>
<path d="M0 0 C7.18849228 4.27194912 11.23153359 9.69700755 13.69921875 17.6484375 C15.34946686 24.90330182 14.75080498 31.71296602 11.3203125 38.37890625 C6.14783054 45.76307015 0.18894408 50.50911739 -8.6796875 52.37890625 C-16.73915173 53.35242569 -24.45924064 51.50542458 -31.015625 46.6484375 C-37.7695924 40.35896228 -40.83595174 34.10606307 -41.1796875 24.87890625 C-40.88515287 16.17490019 -37.94338752 9.50341293 -31.6796875 3.37890625 C-21.68101106 -3.1281689 -11.20373836 -5.16957059 0 0 Z M-32.453125 11.5 C-36.49145935 17.68611091 -36.61216561 24.2104808 -35.6796875 31.37890625 C-33.27735801 37.92348769 -29.57667046 42.17761983 -23.51171875 45.5390625 C-17.47889838 48.30464113 -11.26608006 48.16797517 -4.9921875 46.25390625 C1.13993907 42.78289121 6.77925066 38.55949712 8.87109375 31.52734375 C10.25063703 24.92952807 9.89962077 19.00558006 6.515625 13.125 C3.23932776 8.33903638 -1.1042767 4.21771016 -6.6796875 2.37890625 C-17.76171322 0.97773058 -25.31202995 2.90275987 -32.453125 11.5 Z " fill="#009B6A" transform="translate(841.6796875,10.62109375)"/>
<path d="M0 0 C6.35903538 3.73607105 10.97319417 9.29715992 13.25390625 16.32421875 C15.08404851 24.73025148 14.24171848 32.03523437 9.99609375 39.55078125 C5.47691105 46.14434289 -0.90834003 50.56472302 -8.74609375 52.32421875 C-16.98918521 53.37894502 -25.41429226 51.10216561 -32.12109375 46.13671875 C-38.98564166 38.78184599 -41.07363739 31.49529751 -40.953125 21.61328125 C-40.43848278 13.43726704 -36.82424733 7.75243115 -30.74609375 2.32421875 C-21.21260665 -3.74572625 -10.37704331 -4.74712254 0 0 Z M-31.05859375 9.51171875 C-35.11015765 14.70347686 -37.13869169 20.27642113 -36.68359375 26.88671875 C-35.56065889 33.60093343 -33.22842066 38.4758442 -27.80859375 42.69921875 C-21.4923728 46.96411657 -16.36920679 48.22038829 -8.74609375 47.32421875 C-2.00363826 45.51974749 2.43383187 42.11554946 6.25390625 36.32421875 C9.64190347 30.22582375 10.42368652 24.7090555 8.6328125 17.99609375 C6.03780847 11.21448322 1.391753 6.34581381 -5.13671875 3.15625 C-14.85682606 0.05687447 -24.10908099 2.20538504 -31.05859375 9.51171875 Z " fill="#009B6A" transform="translate(905.74609375,10.67578125)"/>
<path d="M0 0 C7.82548502 4.12018224 12.99547426 9.77127931 15.6796875 18.265625 C17.17955292 26.28531357 16.37814895 33.36163179 12.0625 40.3125 C7.37765787 46.97802222 2.30258367 50.77881697 -5.5 53.0625 C-14.7924899 54.01557589 -22.55888719 52.21539025 -29.9375 46.3125 C-36.09364438 40.39777305 -39.00153773 34.49099076 -39.375 25.9375 C-39.11562692 17.79544056 -36.19345256 10.75944373 -30.65234375 4.78125 C-22.40072693 -2.28619402 -10.01223947 -4.23004325 0 0 Z M-28.53515625 9.765625 C-33.67613437 15.43645323 -34.3152366 21.10268905 -34.20703125 28.5 C-33.59462835 34.89029108 -30.67926927 38.88912861 -26.0625 43.1875 C-20.81434472 47.43048374 -15.99919638 48.81982863 -9.30078125 48.6171875 C-1.84937467 47.65651029 2.91619561 44.04202981 7.65234375 38.41015625 C11.70389965 32.38332656 11.7876298 26.37104198 11.0625 19.3125 C9.35757305 13.17680481 5.4764276 8.59150143 0.0625 5.3125 C-10.37967359 1.10706535 -20.09923866 1.74654098 -28.53515625 9.765625 Z " fill="#009B6A" transform="translate(775.9375,73.6875)"/>
<path d="M0 0 C5.95914013 5.95914013 8.88488588 12.72258489 9.5625 21.125 C9.29295292 29.33825818 5.93512399 36.38561535 0.25 42.25 C-6.25282281 47.45754509 -13.3700833 49.96016243 -21.75 49.25 C-30.33573438 47.91573047 -36.15451274 43.82571861 -41.75 37.25 C-46.04291059 30.47870804 -46.7900092 23.10313069 -45.75 15.25 C-43.63066355 7.58228836 -38.98439185 0.97300926 -32.125 -3.125 C-21.07497893 -8.44538051 -9.99501155 -6.3604619 0 0 Z M-33.75 4.25 C-38.92459404 9.45326215 -41.0383655 14.23736434 -41.1875 21.5625 C-41.05455486 28.92433733 -39.0759379 32.79257153 -34.0703125 37.99609375 C-28.75704042 42.91972588 -23.42432903 44.82036554 -16.18359375 44.625 C-9.08170845 43.53064849 -3.17178401 39.65869026 1.1328125 33.9921875 C4.63404338 28.53222605 5.13270435 22.56830482 4.25 16.25 C2.25259554 9.93262777 -0.89358144 5.06218742 -6.4453125 1.375 C-16.06324794 -3.31985662 -25.38094355 -2.44524516 -33.75 4.25 Z " fill="#009B6A" transform="translate(846.75,77.75)"/>
<path d="M0 0 C5.42001069 5.03363369 9.34007154 11.37560725 9.97265625 18.83203125 C10.0690962 28.22803759 7.60706863 36.01332964 0.97265625 42.83203125 C-5.36566831 48.0110898 -12.49420554 50.15895227 -20.671875 49.67578125 C-29.11912311 48.32629768 -35.51864121 44.34025739 -40.7734375 37.625 C-45.7735127 30.47535977 -46.02049933 23.4075477 -45.02734375 14.83203125 C-42.66055662 6.74550857 -37.43898603 0.91302927 -30.16796875 -3.2265625 C-20.10562695 -7.87928249 -8.8432255 -6.59630795 0 0 Z M-37.02734375 8.83203125 C-40.55139444 14.06126775 -41.65334626 19.91618576 -40.66015625 26.12890625 C-38.65287765 33.31545925 -34.31136052 38.56970858 -28.21484375 42.76953125 C-20.38195553 45.38049399 -13.51016809 45.53753735 -6.02734375 41.83203125 C-0.55895131 38.49497217 2.44255112 33.78480284 4.72265625 27.89453125 C5.73964157 19.50440238 4.49879555 13.5851525 -0.21484375 6.58203125 C-5.55465774 1.36087979 -11.13363291 -0.81364196 -18.58203125 -1.2578125 C-26.35997287 -0.97204148 -31.857801 3.29323544 -37.02734375 8.83203125 Z " fill="#009B6A" transform="translate(910.02734375,141.16796875)"/>
<path d="M0 0 C6.25585006 6.61831348 8.48961238 13.38087928 8.2421875 22.453125 C7.46875522 30.58663868 4.20235085 36.66876585 -2 42 C-9.42196005 46.87141678 -16.19072986 48.73132116 -24.9375 47.4375 C-33.10127201 45.54390619 -39.16029905 40.86482493 -43.84765625 33.99609375 C-47.64317492 27.42148345 -47.90600634 19.97479846 -46.5703125 12.640625 C-44.61538776 5.64151174 -40.67269307 0.37575491 -34.56640625 -3.57421875 C-22.60440259 -9.92846423 -10.30756905 -9.08429724 0 0 Z M-38.625 6.90234375 C-42.60449391 12.97333303 -42.72639852 18.92910812 -42 26 C-40.27013807 32.22543126 -36.34327774 36.51383709 -31 40 C-25.26602871 42.99114644 -19.96815785 44.02093382 -13.5859375 42.37890625 C-7.03108425 40.15104827 -2.79924662 36.79600977 1 31 C3.92733297 24.98816182 4.13379309 18.08029728 2.34765625 11.65234375 C-0.54565436 5.20758749 -5.52398851 0.82333812 -12 -1.875 C-22.60562868 -5.26798848 -31.75834331 -1.40036854 -38.625 6.90234375 Z " fill="#009B6A" transform="translate(784,143)"/>
<path d="M0 0 C6.41569792 4.75895791 11.04926031 10.19670325 12.9140625 18.0703125 C14.05689685 26.81890651 12.21889228 34.37795223 7.25390625 41.671875 C1.28365078 48.40973475 -6.03221533 51.15007642 -14.90625 51.734375 C-22.22603659 51.57327928 -29.600196 49.0060373 -34.74609375 43.671875 C-41.04853419 34.76005311 -42.75153451 27.59142935 -41.74609375 16.671875 C-39.18390781 7.78803402 -33.26267814 2.47215732 -25.62109375 -2.265625 C-17.35720481 -5.27239466 -7.51455929 -4.40722094 0 0 Z M-29.74609375 6.671875 C-34.6462886 11.57206985 -37.62188545 16.96748553 -37.80859375 24.0390625 C-37.24273994 31.04150339 -34.59069933 36.55812466 -29.74609375 41.671875 C-23.70035531 45.88129102 -18.10144124 47.55350912 -10.74609375 46.671875 C-3.6417646 44.85193883 1.36814293 41.96860698 5.25390625 35.671875 C8.34091197 29.81478049 9.36861908 24.02571712 7.71484375 17.56640625 C5.22579471 10.27704834 1.43095528 6.21872368 -5.3828125 2.68359375 C-14.11002685 -1.0525195 -22.49252007 0.86901606 -29.74609375 6.671875 Z " fill="#009B6A" transform="translate(906.74609375,75.328125)"/>
<path d="M0 0 C4.02897881 4.71685324 5.68505051 9.80595492 5.8125 16 C5.5625 19 5.5625 19 4.5625 20 C2.70880389 20.08737645 0.85182459 20.10698153 -1.00390625 20.09765625 C-2.12861328 20.09443359 -3.25332031 20.09121094 -4.41210938 20.08789062 C-5.59611328 20.07951172 -6.78011719 20.07113281 -8 20.0625 C-9.18787109 20.05798828 -10.37574219 20.05347656 -11.59960938 20.04882812 C-14.54562226 20.03699675 -17.49153681 20.02051287 -20.4375 20 C-19.70562823 28.57658072 -19.70562823 28.57658072 -16.3125 36.3125 C-12.58269408 38.50173391 -9.59645262 38.85916206 -5.4375 38 C-2.62858731 36.88504829 -0.0319899 35.54565355 2.5625 34 C3.2225 35.32 3.8825 36.64 4.5625 38 C0.04017614 42.11120351 -3.94245154 43.95421334 -10.12109375 44.03515625 C-15.91856838 43.71263731 -19.99018564 43.01343004 -24.4375 39 C-30.62824729 30.96876027 -30.28727375 21.75657136 -29.4375 12 C-28.04226539 5.89473772 -24.40675169 2.69085033 -19.4375 -0.87109375 C-13.25195851 -4.36254197 -5.96715493 -3.47179923 0 0 Z M-16.4375 4 C-19.11533324 8.05549664 -20.4375 11.09562736 -20.4375 16 C-18.16673158 16.02699725 -15.89587179 16.04639453 -13.625 16.0625 C-11.72814453 16.07990234 -11.72814453 16.07990234 -9.79296875 16.09765625 C-6.44144763 16.16159116 -6.44144763 16.16159116 -3.4375 15 C-3.55608268 10.05186827 -3.71525526 6.9074357 -6.875 2.9375 C-10.88973392 -0.09803053 -12.59624781 1.07333166 -16.4375 4 Z " fill="#009B6A" transform="translate(815.4375,448)"/>
<path d="M0 0 C7.59 0 15.18 0 23 0 C23 1.32 23 2.64 23 4 C20.69 4 18.38 4 16 4 C16 22.48 16 40.96 16 60 C17.98 60 19.96 60 22 60 C22 61.32 22 62.64 22 64 C14.41 64 6.82 64 -1 64 C-0.67 62.68 -0.34 61.36 0 60 C1.98 60 3.96 60 6 60 C6 41.52 6 23.04 6 4 C4.02 4 2.04 4 0 4 C0 2.68 0 1.36 0 0 Z " fill="#009B6A" transform="translate(1476,426)"/>
<path d="M0 0 C0 3.63 0 7.26 0 11 C-2.475 10.505 -2.475 10.505 -5 10 C-5.33 7.36 -5.66 4.72 -6 2 C-9.96 2 -13.92 2 -18 2 C-18.50196294 5.28926495 -18.50196294 5.28926495 -18 9 C-14.13974306 13.16501407 -9.29256877 15.70308828 -4.3671875 18.47265625 C-0.70600464 20.8349046 1.6090726 22.82721781 3 27 C3.39544498 31.19171681 3.26960901 33.48075302 1.3125 37.25 C-2.46658424 41.74404613 -5.43019402 43.10465624 -11.1875 43.875 C-17.0513204 44.29725881 -21.50634817 42.99045356 -27 41 C-27 37.37 -27 33.74 -27 30 C-25.35 30.33 -23.7 30.66 -22 31 C-21.67 33.31 -21.34 35.62 -21 38 C-19.06280622 38.05406122 -17.12518079 38.09282025 -15.1875 38.125 C-14.10855469 38.14820313 -13.02960938 38.17140625 -11.91796875 38.1953125 C-8.80597132 38.23023717 -8.80597132 38.23023717 -6 36 C-5.24862832 33.1292764 -5.24862832 33.1292764 -6 30 C-9.30711186 26.51882962 -12.98722705 24.39941863 -17.125 22 C-22.03922185 19.10319554 -25.12115771 16.69511636 -26.9375 11.125 C-27.01917459 7.04127063 -25.95092091 4.56547614 -24 1 C-17.07451642 -5.70208088 -8.07995346 -2.98336743 0 0 Z " fill="#009B6A" transform="translate(1200,448)"/>
<path d="M0 0 C0.33 19.8 0.66 39.6 1 60 C2.65 60.33 4.3 60.66 6 61 C6 62.32 6 63.64 6 65 C-0.93 65 -7.86 65 -15 65 C-15 63.68 -15 62.36 -15 61 C-13.02 61 -11.04 61 -9 61 C-9 42.85 -9 24.7 -9 6 C-11.97 5.505 -11.97 5.505 -15 5 C-15 3.68 -15 2.36 -15 1 C-14.01 0.835 -13.02 0.67 -12 0.5 C-11.1646875 0.36078125 -11.1646875 0.36078125 -10.3125 0.21875 C-6.88950733 -0.1050466 -3.43827327 0 0 0 Z " fill="#009B6A" transform="translate(1162,425)"/>
<path d="M0 0 C2.5 2.125 2.5 2.125 4.5 5.125 C4.625 7.8125 4.625 7.8125 4.5 10.125 C1.59399739 11.38164978 -0.29604584 12.125 -3.5 12.125 C-4.82 9.155 -6.14 6.185 -7.5 3.125 C-10.84731984 2.8206982 -12.83225607 2.68619684 -15.6875 4.5625 C-20.26219448 11.0301715 -21.40083846 18.34613818 -20.5 26.125 C-19.60446739 30.3236203 -18.5511313 33.88616669 -15.75 37.1875 C-12.47064682 38.55389716 -10.02347501 38.48949741 -6.5 38.125 C-4.47676387 37.17288888 -2.47300116 36.17726728 -0.5 35.125 C0.82 35.125 2.14 35.125 3.5 35.125 C3.4375 36.875 3.4375 36.875 2.5 39.125 C-2.81495374 43.08294427 -7.8824542 44.36393807 -14.5 44.125 C-20.22309308 43.16271001 -23.61182017 40.52452276 -27.2734375 36.13671875 C-31.72781325 28.83097508 -31.43323437 19.89996519 -30.10546875 11.68359375 C-28.36699412 5.95223545 -24.31216392 2.46857647 -19.5 -0.875 C-13.20055485 -4.16166703 -6.11289415 -3.27476472 0 0 Z " fill="#009B6A" transform="translate(1072.5,447.875)"/>
<path d="M0 0 C0.33 2.31 0.66 4.62 1 7 C1.42410156 6.57847656 1.84820313 6.15695312 2.28515625 5.72265625 C6.38480743 1.89331174 9.16537922 0.11440433 15 0 C15.66 0.33 16.32 0.66 17 1 C17 3.64 17 6.28 17 9 C14.34680267 10.32659866 12.15494183 9.88909941 9.265625 9.64453125 C5.36830268 10.25600768 3.81490518 11.15749771 1 14 C0.08854866 18.40677393 0.11541092 22.76230843 0.125 27.25 C0.104375 28.47203125 0.08375 29.6940625 0.0625 30.953125 C0.01537025 33.96942909 -0.00443804 36.98340264 0 40 C2.97 40.33 5.94 40.66 9 41 C9 42.32 9 43.64 9 45 C1.08 45 -6.84 45 -15 45 C-15 43.68 -15 42.36 -15 41 C-13.02 41 -11.04 41 -9 41 C-9 29.45 -9 17.9 -9 6 C-10.98 6 -12.96 6 -15 6 C-15 4.68 -15 3.36 -15 2 C-13.06302033 1.66365624 -11.12539514 1.33102835 -9.1875 1 C-7.56908203 0.7215625 -7.56908203 0.7215625 -5.91796875 0.4375 C-3 0 -3 0 0 0 Z " fill="#009B6A" transform="translate(673,445)"/>
<path d="M0 0 C0 19.8 0 39.6 0 60 C2.31 60.66 4.62 61.32 7 62 C7 62.99 7 63.98 7 65 C-0.26 65 -7.52 65 -15 65 C-15 63.68 -15 62.36 -15 61 C-13.02 61 -11.04 61 -9 61 C-8.67 42.85 -8.34 24.7 -8 6 C-10.31 5.67 -12.62 5.34 -15 5 C-15 3.68 -15 2.36 -15 1 C-14.01 0.835 -13.02 0.67 -12 0.5 C-11.1646875 0.36078125 -11.1646875 0.36078125 -10.3125 0.21875 C-6.88950733 -0.1050466 -3.43827327 0 0 0 Z " fill="#009B6A" transform="translate(1138,425)"/>
<path d="M0 0 C0.33 2.31 0.66 4.62 1 7 C1.42410156 6.57847656 1.84820313 6.15695312 2.28515625 5.72265625 C6.38480743 1.89331174 9.16537922 0.11440433 15 0 C15.66 0.33 16.32 0.66 17 1 C17 3.64 17 6.28 17 9 C14.34680267 10.32659866 12.15494183 9.88909941 9.265625 9.64453125 C5.36830268 10.25600768 3.81490518 11.15749771 1 14 C0.08854866 18.40677393 0.11541092 22.76230843 0.125 27.25 C0.104375 28.47203125 0.08375 29.6940625 0.0625 30.953125 C0.01537025 33.96942909 -0.00443804 36.98340264 0 40 C2.97 40.33 5.94 40.66 9 41 C9 42.32 9 43.64 9 45 C1.08 45 -6.84 45 -15 45 C-15 43.68 -15 42.36 -15 41 C-13.02 41 -11.04 41 -9 41 C-9 29.45 -9 17.9 -9 6 C-10.98 6 -12.96 6 -15 6 C-15 4.68 -15 3.36 -15 2 C-13.06302033 1.66365624 -11.12539514 1.33102835 -9.1875 1 C-7.56908203 0.7215625 -7.56908203 0.7215625 -5.91796875 0.4375 C-3 0 -3 0 0 0 Z " fill="#009B6A" transform="translate(1002,445)"/>
<path d="M0 0 C1.32 0 2.64 0 4 0 C4 3.96 4 7.92 4 12 C7.63 12 11.26 12 15 12 C15 13.32 15 14.64 15 16 C11.37 16.33 7.74 16.66 4 17 C4.09363611 20.93309734 4.19975145 24.86564085 4.31738281 28.7980957 C4.37444092 30.7929536 4.42164442 32.7880854 4.46875 34.78320312 C4.50742188 36.03681641 4.54609375 37.29042969 4.5859375 38.58203125 C4.6173584 39.73936768 4.6487793 40.8967041 4.68115234 42.08911133 C4.79471033 45.19127028 4.79471033 45.19127028 7 48 C9.64 47.67 12.28 47.34 15 47 C15.33 48.32 15.66 49.64 16 51 C11.88100544 53.96052734 8.04149703 55.17349281 3 55 C0.14319491 53.82001529 -1.38769363 52.90231815 -3.12060547 50.34863281 C-4.3583013 47.04307092 -4.22327847 44.13308762 -4.1953125 40.609375 C-4.19106766 39.55245453 -4.19106766 39.55245453 -4.18673706 38.47418213 C-4.17557801 36.2326124 -4.15048193 33.99144814 -4.125 31.75 C-4.11496464 30.22656829 -4.10583976 28.70313029 -4.09765625 27.1796875 C-4.07565291 23.45299414 -4.04115272 19.72653667 -4 16 C-5.98 16 -7.96 16 -10 16 C-9.8125 13.6875 -9.8125 13.6875 -9 11 C-8.236875 10.566875 -7.47375 10.13375 -6.6875 9.6875 C-2.87386691 7.29289318 -1.72242697 4.05107124 0 0 Z " fill="#009B6A" transform="translate(1328,437)"/>
<path d="M0 0 C5.3930701 6.3652115 8.56461766 13.25243487 8.31640625 21.7578125 C7.26867271 29.18249214 4.36302449 35.77448895 -1 41 C-1.99 41.33 -2.98 41.66 -4 42 C-4.75 39.8125 -4.75 39.8125 -5 37 C-3.25 34.625 -3.25 34.625 -1 32 C2.09163217 26.36881284 2.98140559 21.39342866 2 15 C-0.15303033 7.93764449 -3.5654076 3.88286156 -9.81640625 0.05859375 C-14.89894458 -2.40539174 -19.96441652 -2.79858456 -25.46484375 -1.3515625 C-32.51131379 1.12794726 -36.73685087 4.6036799 -40.15625 11.24609375 C-41.24855317 14.81124991 -41.1173882 17.90526153 -41 21.625 C-40.77861163 28.66791745 -40.77861163 28.66791745 -43 32 C-43.66 32 -44.32 32 -45 32 C-48.00009366 25.24978926 -48.19134419 16.86721453 -46 9.8125 C-43.05084362 3.2113509 -37.9841133 -2.41134142 -31.4375 -5.5 C-20.21936729 -9.66618898 -8.96067262 -8.19361115 0 0 Z " fill="#009B6A" transform="translate(848,143)"/>
<path d="M0 0 C0.33 13.2 0.66 26.4 1 40 C2.65 40.33 4.3 40.66 6 41 C6 42.32 6 43.64 6 45 C-0.93 45 -7.86 45 -15 45 C-15 43.68 -15 42.36 -15 41 C-13.02 41 -11.04 41 -9 41 C-9 29.45 -9 17.9 -9 6 C-10.98 6 -12.96 6 -15 6 C-15 4.68 -15 3.36 -15 2 C-13.06302033 1.66365624 -11.12539514 1.33102835 -9.1875 1 C-7.56908203 0.7215625 -7.56908203 0.7215625 -5.91796875 0.4375 C-3 0 -3 0 0 0 Z " fill="#009B6A" transform="translate(1309,445)"/>
<path d="M0 0 C1.875 1.1875 1.875 1.1875 3 3 C3.4375 5.5 3.4375 5.5 3 8 C1.4375 9.875 1.4375 9.875 -1 11 C-4.625 10.875 -4.625 10.875 -8 10 C-10 7 -10 7 -9.8125 4.4375 C-8.17370866 -0.47887401 -4.56774591 -0.47580687 0 0 Z " fill="#009B6A" transform="translate(1306,425)"/>
</svg>
